# xmcd CD database file generated by LOLA_Freedb v0.9beta0
# 
# Track frame offsets:
#      150
#      10554
#      24189
#      43550
#      59165
#      69228
#      81229
#      92197
#      112544
#      126787
#      137654
#      156209
#      180246
#      193312
#      202827
#      214779
# 
# Disc length: 3033 seconds
# 
# Revision: 3 
# Processed by: cddbd v1.5.2PL0 Copyright (c) Steve Scherf et al.
# Submitted via: LOLA_Freedb v0.9beta0
# 
DISCID=cb0bd710
DTITLE=Studio 99 - Tribute To Creedence Clearwater Revival
DYEAR=1900
DGENRE=
TTITLE0=Studio 99 - Bad Moon Rising
TTITLE1=Proud Mary
TTITLE2=Susie Q
TTITLE3=Have You Ever Seen The Rain
TTITLE4=Fortunate Son
TTITLE5=Green River
TTITLE6=Hey Tonight
TTITLE7=I Put A Spell On You
TTITLE8=Lodi
TTITLE9=Looking Out My Back Door
TTITLE10=The Midnight Special
TTITLE11=Born On The Bayou
TTITLE12=Cotton Fields
TTITLE13=Travellin Band
TTITLE14=Up Around The Band
TTITLE15=Down On The Corner
EXTD=
EXTT0=
EXTT1=
EXTT2=
EXTT3=
EXTT4=
EXTT5=
EXTT6=
EXTT7=
EXTT8=
EXTT9=
EXTT10=
EXTT11=
EXTT12=
EXTT13=
EXTT14=
EXTT15=
PLAYORDER=
